<svg width="33" height="33" viewBox="0 0 33 33" fill="none" xmlns="http://www.w3.org/2000/svg">
<g opacity="0.4">
<path d="M7.43697 25.5844C6.78328 26.9441 7.3559 28.5774 8.71581 29.2295C10.0759 29.8836 11.7082 29.3107 12.3619 27.951C13.0156 26.5913 12.3181 21.7352 12.3181 21.7352C12.3181 21.7352 8.09086 24.2247 7.43697 25.5844Z" fill="white"/>
<path d="M14.7262 25.5844C14.0727 26.9441 14.6452 28.5774 16.0053 29.2295C17.365 29.8836 18.9974 29.3107 19.6511 27.951C20.3048 26.5913 19.6073 21.7352 19.6073 21.7352C19.6073 21.7352 15.3799 24.2247 14.7262 25.5844Z" fill="white"/>
<path d="M17.8366 19.1483C18.4903 17.7886 17.7928 12.9325 17.7928 12.9325C17.7928 12.9325 13.5656 15.422 12.9117 16.7817C12.258 18.1414 12.8307 19.7746 14.1906 20.4268C15.5507 21.0808 17.1829 20.508 17.8366 19.1483Z" fill="white"/>
<path d="M22.1248 20.4268C23.4847 21.0808 25.117 20.508 25.7707 19.1483C26.4244 17.7886 25.7269 12.9325 25.7269 12.9325C25.7269 12.9325 21.4997 15.422 20.8458 16.7817C20.1923 18.1414 20.7647 19.7746 22.1248 20.4268Z" fill="white"/>
<path d="M24.5466 11.0486C25.2004 9.68869 24.5031 4.83317 24.5031 4.83317C24.5031 4.83317 20.2756 7.32148 19.6221 8.68139C18.9684 10.0413 19.5406 11.6737 20.9007 12.3274C22.2606 12.9801 23.8929 12.4087 24.5466 11.0486Z" fill="white"/>
<path d="M26.3978 21.7352C26.3978 21.7352 22.1704 24.2247 21.5167 25.5844C20.863 26.9441 21.4356 28.5774 22.7954 29.2295C24.1555 29.8836 25.7877 29.3107 26.4416 27.951C27.0953 26.5913 26.3978 21.7352 26.3978 21.7352Z" fill="white"/>
</g>
</svg>
